<svg xmlns="http://www.w3.org/2000/svg" viewBox="0 0 96 96" role="img" aria-label="Kaydet">
  <g fill="none" stroke="#ffffff" stroke-linecap="round" stroke-linejoin="round">
    <path d="M15 8h55l16 16v57a7 7 0 0 1-7 7H15a7 7 0 0 1-7-7V15a7 7 0 0 1 7-7Z" stroke-width="6"/>
    <path d="M25 8v25a7 7 0 0 0 7 7h30a7 7 0 0 0 7-7V8" stroke-width="6"/>
    <path d="M25 88V57a10 10 0 0 1 10-10h26a10 10 0 0 1 10 10v31" stroke-width="6"/>
    <path d="M39 62h18M39 72h18" stroke-width="5"/>
  </g>
</svg>
